<svg width="21" height="24" viewBox="0 0 21 24" fill="none" xmlns="http://www.w3.org/2000/svg">
<path d="M1.95789 15.0567L10.0405 1.98853L10.5205 1.48296L16.6973 5.60133L16.7396 8.08658L18.2471 10.5463L11.5873 21.1037L1.95789 15.0567Z" fill="#FCF1E0"/>
<path fill-rule="evenodd" clip-rule="evenodd" d="M9.60649 1.10649C9.89397 0.634921 10.5067 0.489895 10.9751 0.782561L18.1945 5.29376C18.6629 5.58642 18.8095 6.20595 18.522 6.67752C17.858 7.76679 17.901 8.27862 18.0355 8.59154C18.2219 9.02526 18.7478 9.51629 19.9028 10.238C20.3711 10.5306 20.5178 11.1502 20.2303 11.6217L13.14 23.2521C12.8526 23.7237 12.2398 23.8687 11.7715 23.576L1.13232 16.928C0.663957 16.6353 0.517322 16.0158 0.804803 15.5442L9.60649 1.10649ZM7.84816 7.83274L5.95532 10.9376L9.5788 13.2018L11.4716 10.0969L7.84816 7.83274ZM12.5127 8.38925L8.88922 6.12505L10.7821 3.02017L14.4055 5.28437L12.5127 8.38925ZM13.1677 11.1568L11.2749 14.2617L14.8984 16.5259L16.7912 13.421L13.1677 11.1568ZM17.8323 11.7133L14.2088 9.44909L16.1016 6.34421L16.3569 6.50375C15.9173 7.49862 15.8114 8.45528 16.2106 9.38415C16.5574 10.191 17.2371 10.8291 18.0274 11.3932L17.8323 11.7133ZM13.8573 18.2335L10.2338 15.9693L8.341 19.0742L11.9645 21.3384L13.8573 18.2335ZM6.64491 18.0144L8.53774 14.9095L4.91426 12.6453L3.02143 15.7502L6.64491 18.0144Z" fill="#FD9222"/>
</svg>
