<svg xmlns="http://www.w3.org/2000/svg" aria-hidden="true" style="position:absolute;width:0;height:0;overflow:hidden">
  <defs>
<symbol id="icon_chocolate" viewBox="0 0 32 32">
<path fill="#fcf1e0" style="fill: var(--color1, #fcf1e0)" d="M3.944 20.075l10.777-17.424 0.64-0.674 8.236 5.491 0.056 3.314 2.010 3.28-8.88 14.076-12.839-8.063z"></path>
<path fill="none" stroke="#fd9222" style="stroke: var(--color2, #fd9222)" stroke-linejoin="round" stroke-linecap="round" stroke-miterlimit="4" stroke-width="2.7429" d="M21.634 23.879l-14.185-8.864M11.361 8.598l14.186 8.864M10.63 25.864l11.736-19.25M27.176 14.789c-3.040-1.899-4.234-3.384-2.278-6.592l-9.626-6.015-11.736 19.25 14.186 8.864 9.454-15.507z"></path>
</symbol>
<symbol id="icon_menu" viewBox="0 0 43 32">
<path d="M2.018 1.428c-0.599 0.174-1.298 0.864-1.456 1.438-0.107 0.382-0.107 0.997 0 1.38 0.164 0.596 0.868 1.273 1.499 1.444 0.181 0.048 6.56 0.066 19.424 0.053l19.156-0.018 0.3-0.16c0.94-0.503 1.403-1.417 1.221-2.418-0.128-0.7-0.533-1.232-1.221-1.6l-0.3-0.16-19.2-0.012c-11.399-0.005-19.291 0.016-19.422 0.053zM2.018 13.872c-0.599 0.174-1.298 0.864-1.456 1.438-0.107 0.382-0.107 0.997 0 1.38 0.164 0.596 0.868 1.273 1.499 1.444 0.181 0.048 6.56 0.066 19.424 0.053l19.156-0.018 0.3-0.16c0.94-0.503 1.403-1.417 1.221-2.418-0.128-0.7-0.533-1.232-1.221-1.6l-0.3-0.16-19.2-0.012c-11.399-0.005-19.291 0.016-19.422 0.053zM2.018 26.316c-0.599 0.174-1.298 0.864-1.456 1.438-0.107 0.382-0.107 0.997 0 1.38 0.164 0.596 0.868 1.273 1.499 1.444 0.181 0.048 6.56 0.066 19.424 0.053l19.156-0.018 0.3-0.16c0.94-0.503 1.403-1.417 1.221-2.418-0.128-0.7-0.533-1.232-1.221-1.6l-0.3-0.16-19.2-0.012c-11.399-0.005-19.291 0.016-19.422 0.053z"></path>
</symbol>
<symbol id="icon_insta" viewBox="0 0 32 32">
<path d="M9.333 3.667c-3.13 0-5.667 2.537-5.667 5.667v13.333c0 3.13 2.537 5.667 5.667 5.667h13.333c3.13 0 5.667-2.537 5.667-5.667v-13.333c0-3.13-2.537-5.667-5.667-5.667h-13.333zM1.667 9.333c0-4.234 3.432-7.667 7.667-7.667h13.333c4.234 0 7.667 3.432 7.667 7.667v13.333c0 4.234-3.433 7.667-7.667 7.667h-13.333c-4.234 0-7.667-3.433-7.667-7.667v-13.333z"></path>
<path d="M16.693 11.656c-0.902-0.134-1.822 0.020-2.631 0.44s-1.465 1.084-1.875 1.898c-0.41 0.814-0.552 1.737-0.408 2.637s0.57 1.731 1.214 2.376c0.644 0.645 1.476 1.069 2.376 1.214s1.823 0.002 2.637-0.408c0.814-0.41 1.478-1.066 1.898-1.875s0.574-1.73 0.44-2.631c-0.136-0.92-0.565-1.771-1.222-2.428s-1.509-1.086-2.429-1.222zM13.141 10.321c1.182-0.614 2.528-0.839 3.846-0.643 1.344 0.199 2.589 0.826 3.549 1.787s1.587 2.205 1.787 3.549c0.195 1.318-0.030 2.663-0.643 3.846s-1.584 2.141-2.774 2.74-2.538 0.807-3.854 0.596c-1.315-0.212-2.53-0.833-3.472-1.775s-1.563-2.157-1.775-3.472c-0.212-1.315-0.003-2.664 0.596-3.854s1.558-2.161 2.74-2.774z"></path>
<path d="M22.333 8.667c0-0.552 0.448-1 1-1h0.013c0.552 0 1 0.448 1 1s-0.448 1-1 1h-0.013c-0.552 0-1-0.448-1-1z"></path>
</symbol>
<symbol id="icon_face" viewBox="0 0 30 32">
<path d="M13.75 4.353c1.405-1.405 3.311-2.194 5.298-2.194h3.81c0.631 0 1.143 0.512 1.143 1.143v5.079c0 0.631-0.512 1.143-1.143 1.143h-3.81c-0.034 0-0.066 0.013-0.090 0.037s-0.037 0.056-0.037 0.090v2.667h3.936c0.352 0 0.684 0.162 0.901 0.44s0.293 0.639 0.208 0.981l-1.27 5.079c-0.127 0.509-0.584 0.866-1.109 0.866h-2.667v9.016c0 0.631-0.512 1.143-1.143 1.143h-5.079c-0.631 0-1.143-0.512-1.143-1.143v-9.016h-2.667c-0.631 0-1.143-0.512-1.143-1.143v-5.079c0-0.631 0.512-1.143 1.143-1.143h2.667v-2.667c0-1.987 0.789-3.893 2.194-5.298zM19.047 4.445c-1.381 0-2.705 0.549-3.681 1.525s-1.525 2.301-1.525 3.681v3.81c0 0.631-0.512 1.143-1.143 1.143h-2.667v2.794h2.667c0.631 0 1.143 0.512 1.143 1.143v9.016h2.794v-9.016c0-0.631 0.512-1.143 1.143-1.143h2.917l0.698-2.794h-3.616c-0.631 0-1.143-0.512-1.143-1.143v-3.81c0-0.64 0.254-1.254 0.707-1.706s1.066-0.707 1.706-0.707h2.667v-2.794h-2.667z"></path>
</symbol>
<symbol id="icon_twit" viewBox="0 0 30 32">
<path d="M18.49 3.865c1.307-0.499 2.737-0.584 4.094-0.245 1.104 0.276 2.118 0.823 2.952 1.586 1.068-0.385 2.081-0.913 3.011-1.568 0.389-0.275 0.908-0.279 1.302-0.011s0.58 0.752 0.467 1.215c-0.434 1.784-1.31 3.426-2.541 4.779 0.022 0.22 0.033 0.44 0.034 0.661v0.004c0 7.702-3.706 13.34-9.018 16.168-5.285 2.813-12.046 2.785-18.076-0.566-0.463-0.257-0.688-0.798-0.545-1.308s0.617-0.854 1.146-0.833c2.244 0.089 4.464-0.377 6.468-1.344-4.675-2.811-6.234-6.982-6.541-10.57-0.17-1.994 0.043-3.804 0.294-5.11 0.126-0.655 0.263-1.19 0.371-1.565 0.054-0.188 0.1-0.336 0.134-0.439 0.017-0.052 0.031-0.093 0.041-0.122l0.012-0.035 0.005-0.014 0.001-0.001c0-0.001 0-0.001 1.076 0.386l-1.075-0.387c0.145-0.401 0.501-0.689 0.923-0.745s0.842 0.127 1.087 0.476c1.224 1.742 3.442 3.969 5.205 4.856 1.493 0.752 3.119 1.192 4.78 1.298v-0.099c-0.017-1.397 0.394-2.765 1.179-3.921 0.786-1.158 1.909-2.046 3.216-2.546zM3.729 7.44c-0.199 1.134-0.345 2.61-0.209 4.199 0.29 3.4 1.85 7.331 7.103 9.666 0.379 0.169 0.637 0.529 0.674 0.943s-0.153 0.814-0.496 1.047c-1.53 1.039-3.219 1.796-4.988 2.25 4.204 1.19 8.451 0.729 11.905-1.109 4.528-2.41 7.806-7.247 7.807-14.148-0.001-0.282-0.028-0.564-0.081-0.841-0.072-0.375 0.048-0.76 0.32-1.028 0.391-0.385 0.742-0.805 1.050-1.253-0.414 0.166-0.836 0.314-1.265 0.443-0.43 0.13-0.897-0.005-1.192-0.344-0.611-0.703-1.423-1.201-2.327-1.427s-1.854-0.169-2.724 0.163c-0.87 0.332-1.617 0.923-2.14 1.694s-0.797 1.683-0.784 2.614l0 0.015h-0v1.27c0 0.62-0.494 1.126-1.113 1.142-2.42 0.063-4.818-0.474-6.98-1.562-1.553-0.782-3.231-2.262-4.559-3.734z"></path>
</symbol>
<symbol id="icon-menu_close" viewBox="0 0 32 32">
<path fill="#fff" style="fill: var(--color1, #fff)" d="M8.525 8.525c0.446-0.446 1.17-0.446 1.616 0l5.858 5.859 5.859-5.859c0.446-0.446 1.17-0.446 1.616 0s0.446 1.17 0 1.616l-5.858 5.859 5.858 5.858c0.446 0.446 0.446 1.17 0 1.616s-1.17 0.446-1.616 0l-5.859-5.858-5.858 5.858c-0.446 0.446-1.17 0.446-1.616 0s-0.446-1.17 0-1.616l5.858-5.858-5.858-5.859c-0.446-0.446-0.446-1.17 0-1.616z"></path>
</symbol>
<symbol id="icon_scroll" viewBox="0 0 32 32">
<path d="M16.947 17.867c-0.124 0.125-0.271 0.224-0.434 0.292s-0.337 0.103-0.513 0.103-0.35-0.035-0.513-0.103c-0.162-0.068-0.31-0.167-0.434-0.292l-6.107-6.12c-0.124-0.125-0.271-0.224-0.434-0.292s-0.337-0.103-0.513-0.103c-0.176 0-0.35 0.035-0.513 0.103s-0.31 0.167-0.434 0.292c-0.248 0.25-0.388 0.588-0.388 0.94s0.139 0.69 0.388 0.94l6.12 6.12c0.75 0.749 1.767 1.17 2.827 1.17s2.077-0.421 2.827-1.17l6.12-6.12c0.246-0.248 0.385-0.584 0.387-0.933 0.001-0.175-0.033-0.349-0.099-0.512s-0.164-0.31-0.288-0.435c-0.124-0.125-0.271-0.224-0.434-0.292s-0.337-0.103-0.513-0.103-0.35 0.035-0.513 0.103c-0.162 0.068-0.31 0.167-0.434 0.292l-6.107 6.12z"></path>
</symbol>
 <symbol id="icon_price" viewBox="0 0 32 32">
      <path d="M16 2.667c-7.333 0-13.333 6-13.333 13.333s6 13.333 13.333 13.333 13.333-6 13.333-13.333S23.333 2.667 16 2.667zm0 24c-5.867 0-10.667-4.8-10.667-10.667S10.133 5.333 16 5.333 26.667 10.133 26.667 16 21.867 26.667 16 26.667z"/>
      <path d="M17.733 14.667h-3.467c-.667 0-1.2-.533-1.2-1.2s.533-1.2 1.2-1.2h4.933c.8 0 1.333-.533 1.333-1.333s-.533-1.333-1.333-1.333h-1.867v-1.2c0-.8-.533-1.333-1.333-1.333s-1.333.533-1.333 1.333v1.2h-.4c-2.133 0-3.867 1.733-3.867 3.867s1.733 3.867 3.867 3.867h3.333c.667 0 1.2.533 1.2 1.2s-.533 1.2-1.2 1.2h-4.933c-.8 0-1.333.533-1.333 1.333s.533 1.333 1.333 1.333h2v1.2c0 .8.533 1.333 1.333 1.333s1.333-.533 1.333-1.333v-1.2h.4c2.133 0 3.867-1.733 3.867-3.867s-1.733-3.867-3.867-3.867z"/>
    </symbol>
    <symbol id="icon_taste" viewBox="0 0 32 32">
      <path d="m13.822 2.413 7.527 7.536.08-.08a.856.856 0 0 1 1.184-.013l.873.873c.305.305.315.77.083 1.094l-.004.007-.143.192 6.16 6.16c.55.55.55 1.43 0 1.98l-9.43 9.43c-.55.55-1.43.55-1.98 0l-4.447-4.447a.853.853 0 0 1-.612.317.842.842 0 0 1-.644-.246l-2.6-2.6a.856.856 0 0 1-.013-1.184l.006-.007.077-.076-7.527-7.527c-.55-.55-.55-1.43 0-1.98l9.43-9.43c.55-.55 1.43-.55 1.98 0v.001zm6.582 8.48-1.756-1.755a.59.59 0 0 0-.85 0l-3.58 3.58a.621.621 0 0 0-.179.43.602.602 0 0 0 .179.43l1.749 1.749.61-.61-1.565-1.565 3.21-3.22 1.569 1.574.613-.613zm-5.076 5.072-1.754-1.754a.59.59 0 0 0-.85 0l-3.59 3.59c-.24.23-.24.61 0 .85l1.752 1.752.616-.616-1.57-1.564 3.22-3.21 1.564 1.563.612-.611zM8.822 8.193l3.58 3.58c.24.24.62.24.85-.01l3.58-3.58a.57.57 0 0 0 .18-.42h.01c0-.15-.06-.31-.18-.43l-3.58-3.58a.602.602 0 0 0-.86 0l-3.58 3.59c-.24.23-.24.61 0 .85zm-5.07 5.07 3.58 3.58c.24.24.62.24.85 0l3.58-3.58a.578.578 0 0 0 .18-.43h.01c0-.16-.06-.31-.18-.43l-3.58-3.58a.59.59 0 0 0-.85 0l-3.59 3.59c-.24.23-.24.61 0 .85zm6.933 8.754 2.362 2.363 9.636-13.04-.655-.655-11.343 11.332z"/>
      <path d="m13.822 2.413 7.527 7.536.08-.08a.856.856 0 0 1 1.184-.013l.873.873c.305.305.315.77.083 1.094l-.004.007-.143.192 6.16 6.16c.55.55.55 1.43 0 1.98l-9.43 9.43c-.55.55-1.43.55-1.98 0l-4.447-4.447a.853.853 0 0 1-.612.317.842.842 0 0 1-.644-.246l-2.6-2.6a.856.856 0 0 1-.013-1.184l.006-.007.077-.076-7.527-7.527c-.55-.55-.55-1.43 0-1.98l9.43-9.43c.55-.55 1.43-.55 1.98 0v.001zm6.582 8.48-1.756-1.755a.59.59 0 0 0-.85 0l-3.58 3.58a.621.621 0 0 0-.179.43.602.602 0 0 0 .179.43l1.749 1.749.61-.61-1.565-1.565 3.21-3.22 1.569 1.574.613-.613zm-5.076 5.072-1.754-1.754a.59.59 0 0 0-.85 0l-3.59 3.59c-.24.23-.24.61 0 .85l1.752 1.752.616-.616-1.57-1.564 3.22-3.21 1.564 1.563.612-.611zM8.822 8.193l3.58 3.58c.24.24.62.24.85-.01l3.58-3.58a.57.57 0 0 0 .18-.42h.01c0-.15-.06-.31-.18-.43l-3.58-3.58a.602.602 0 0 0-.86 0l-3.58 3.59c-.24.23-.24.61 0 .85zm-5.07 5.07 3.58 3.58c.24.24.62.24.85 0l3.58-3.58a.578.578 0 0 0 .18-.43h.01c0-.16-.06-.31-.18-.43l-3.58-3.58a.59.59 0 0 0-.85 0l-3.59 3.59c-.24.23-.24.61 0 .85zm6.933 8.754 2.362 2.363 9.636-13.04-.655-.655-11.343 11.332z"/>
    </symbol>
    <symbol id="icon_tool" viewBox="0 0 32 32">
      <path d="M15.452 14.106a5.154 5.154 0 0 1-1.177-3.282c0-4.324 5.181-8.642 10.362-8.642a5.183 5.183 0 0 1 5.181 5.182c0 5.182-4.318 10.364-8.646 10.364a5.15 5.15 0 0 1-3.281-1.177L5.133 29.312a1.73 1.73 0 0 1-2.445-2.445l12.764-12.761z"/>
    </symbol>
    <symbol id="icon_down" viewBox="0 0 208 32">
<path d="M8.41 30.361c-1.69 0-3.302-0.23-4.838-0.691-1.51-0.461-2.701-1.024-3.571-1.69l1.536-2.918c0.87 0.589 1.946 1.088 3.226 1.498s2.586 0.614 3.917 0.614c1.715 0 2.944-0.243 3.686-0.73 0.768-0.486 1.152-1.165 1.152-2.035 0-0.64-0.23-1.139-0.691-1.498s-1.075-0.627-1.843-0.806c-0.742-0.179-1.574-0.333-2.496-0.461-0.922-0.154-1.843-0.333-2.765-0.538-0.922-0.23-1.766-0.538-2.534-0.922-0.768-0.41-1.382-0.96-1.843-1.651-0.461-0.717-0.691-1.664-0.691-2.842 0-1.229 0.346-2.304 1.037-3.226s1.664-1.626 2.918-2.112c1.28-0.512 2.79-0.768 4.531-0.768 1.331 0 2.675 0.166 4.032 0.499 1.382 0.307 2.509 0.755 3.379 1.344l-1.574 2.918c-0.922-0.614-1.882-1.037-2.88-1.267s-1.997-0.346-2.995-0.346c-1.613 0-2.816 0.269-3.61 0.806-0.794 0.512-1.19 1.178-1.19 1.997 0 0.691 0.23 1.229 0.691 1.613 0.486 0.358 1.101 0.64 1.843 0.845 0.768 0.205 1.613 0.384 2.534 0.538 0.922 0.128 1.843 0.307 2.765 0.538 0.922 0.205 1.754 0.499 2.496 0.883 0.768 0.384 1.382 0.922 1.843 1.613 0.486 0.691 0.73 1.613 0.73 2.765 0 1.229-0.358 2.291-1.075 3.187s-1.728 1.6-3.034 2.112c-1.306 0.486-2.867 0.73-4.685 0.73z"></path>
<path d="M29.529 30.361c-2.074 0-3.93-0.448-5.568-1.344-1.613-0.896-2.88-2.125-3.802-3.686s-1.382-3.354-1.382-5.376c0-2.022 0.461-3.814 1.382-5.376s2.189-2.778 3.802-3.648c1.638-0.896 3.494-1.344 5.568-1.344 1.843 0 3.482 0.371 4.915 1.114 1.459 0.717 2.586 1.792 3.379 3.226l-2.803 1.805c-0.666-0.998-1.485-1.728-2.458-2.189-0.947-0.486-1.971-0.73-3.072-0.73-1.331 0-2.522 0.294-3.571 0.883s-1.882 1.421-2.496 2.496c-0.614 1.050-0.922 2.304-0.922 3.763s0.307 2.726 0.922 3.802c0.614 1.075 1.446 1.907 2.496 2.496s2.24 0.883 3.571 0.883c1.101 0 2.125-0.23 3.072-0.691 0.973-0.486 1.792-1.229 2.458-2.227l2.803 1.766c-0.794 1.408-1.92 2.496-3.379 3.264-1.434 0.742-3.072 1.114-4.915 1.114z"></path>
<path d="M41.444 30.131v-20.352h3.533v5.53l-0.346-1.382c0.563-1.408 1.51-2.483 2.842-3.226s2.97-1.114 4.915-1.114v3.571c-0.154-0.026-0.307-0.038-0.461-0.038-0.128 0-0.256 0-0.384 0-1.971 0-3.533 0.589-4.685 1.766s-1.728 2.88-1.728 5.107v10.138h-3.686z"></path>
<path d="M64.308 30.361c-2.048 0-3.866-0.448-5.453-1.344s-2.842-2.125-3.763-3.686c-0.922-1.587-1.382-3.379-1.382-5.376 0-2.022 0.461-3.814 1.382-5.376s2.176-2.778 3.763-3.648c1.587-0.896 3.405-1.344 5.453-1.344 2.022 0 3.827 0.448 5.414 1.344 1.613 0.87 2.867 2.086 3.763 3.648 0.922 1.536 1.382 3.328 1.382 5.376 0 2.022-0.461 3.814-1.382 5.376-0.896 1.562-2.15 2.79-3.763 3.686-1.587 0.896-3.392 1.344-5.414 1.344zM64.308 27.136c1.306 0 2.47-0.294 3.494-0.883 1.050-0.589 1.869-1.421 2.458-2.496 0.589-1.101 0.883-2.368 0.883-3.802 0-1.459-0.294-2.714-0.883-3.763-0.589-1.075-1.408-1.907-2.458-2.496-1.024-0.589-2.189-0.883-3.494-0.883s-2.47 0.294-3.494 0.883c-1.024 0.589-1.843 1.421-2.458 2.496-0.614 1.050-0.922 2.304-0.922 3.763 0 1.434 0.307 2.701 0.922 3.802 0.614 1.075 1.434 1.907 2.458 2.496s2.189 0.883 3.494 0.883z"></path>
<path d="M78.815 30.131v-28.493h3.686v28.493h-3.686z"></path>
<path d="M88.388 30.131v-28.493h3.686v28.493h-3.686z"></path>
<path d="M115.531 30.361c-1.971 0-3.738-0.435-5.299-1.306-1.536-0.87-2.752-2.086-3.648-3.648s-1.344-3.379-1.344-5.453c0-2.074 0.448-3.878 1.344-5.414 0.896-1.562 2.112-2.778 3.648-3.648 1.562-0.87 3.328-1.306 5.299-1.306 1.715 0 3.264 0.384 4.646 1.152s2.483 1.92 3.302 3.456c0.845 1.536 1.267 3.456 1.267 5.76s-0.41 4.224-1.229 5.76c-0.794 1.536-1.882 2.701-3.264 3.494-1.382 0.768-2.957 1.152-4.723 1.152zM115.838 27.136c1.28 0 2.432-0.294 3.456-0.883 1.050-0.589 1.869-1.421 2.458-2.496 0.614-1.101 0.922-2.368 0.922-3.802 0-1.459-0.307-2.714-0.922-3.763-0.589-1.075-1.408-1.907-2.458-2.496-1.024-0.589-2.176-0.883-3.456-0.883-1.306 0-2.47 0.294-3.494 0.883s-1.843 1.421-2.458 2.496c-0.614 1.050-0.922 2.304-0.922 3.763 0 1.434 0.307 2.701 0.922 3.802 0.614 1.075 1.434 1.907 2.458 2.496s2.189 0.883 3.494 0.883zM122.788 30.131v-5.491l0.23-4.723-0.384-4.723v-13.555h3.686v28.493h-3.533z"></path>
<path d="M140.861 30.361c-2.048 0-3.866-0.448-5.453-1.344s-2.842-2.125-3.763-3.686c-0.922-1.587-1.382-3.379-1.382-5.376 0-2.022 0.461-3.814 1.382-5.376s2.176-2.778 3.763-3.648c1.587-0.896 3.405-1.344 5.453-1.344 2.022 0 3.827 0.448 5.414 1.344 1.613 0.87 2.867 2.086 3.763 3.648 0.922 1.536 1.382 3.328 1.382 5.376 0 2.022-0.461 3.814-1.382 5.376-0.896 1.562-2.15 2.79-3.763 3.686-1.587 0.896-3.392 1.344-5.414 1.344zM140.861 27.136c1.306 0 2.47-0.294 3.494-0.883 1.050-0.589 1.869-1.421 2.458-2.496 0.589-1.101 0.883-2.368 0.883-3.802 0-1.459-0.294-2.714-0.883-3.763-0.589-1.075-1.408-1.907-2.458-2.496-1.024-0.589-2.189-0.883-3.494-0.883s-2.47 0.294-3.494 0.883c-1.024 0.589-1.843 1.421-2.458 2.496-0.614 1.050-0.922 2.304-0.922 3.763 0 1.434 0.307 2.701 0.922 3.802 0.614 1.075 1.434 1.907 2.458 2.496s2.189 0.883 3.494 0.883z"></path>
<path d="M159.106 30.131l-7.565-20.352h3.494l6.72 18.432h-1.651l6.989-18.432h3.11l6.835 18.432h-1.613l6.874-18.432h3.302l-7.603 20.352h-3.533l-6.413-16.819h1.075l-6.49 16.819h-3.533z"></path>
<path d="M199.058 9.587c1.664 0 3.123 0.32 4.378 0.96 1.28 0.64 2.278 1.613 2.995 2.918s1.075 2.957 1.075 4.954v11.712h-3.686v-11.29c0-1.971-0.486-3.456-1.459-4.454-0.947-0.998-2.291-1.498-4.032-1.498-1.306 0-2.445 0.256-3.418 0.768s-1.728 1.267-2.266 2.266c-0.512 0.998-0.768 2.24-0.768 3.725v10.483h-3.686v-20.352h3.533v5.491l-0.576-1.459c0.666-1.331 1.69-2.368 3.072-3.11s2.995-1.114 4.838-1.114z"></path>
</symbol>
<symbol id="icon_arrow" viewBox="0 0 32 32">
<path d="M18.957 12.1c0.26-0.26 0.682-0.26 0.943 0l3.429 3.429c0.26 0.26 0.26 0.683 0 0.943l-3.429 3.429c-0.26 0.26-0.683 0.26-0.943 0s-0.26-0.683 0-0.943l2.29-2.29h-12.105c-0.368 0-0.667-0.299-0.667-0.667s0.298-0.667 0.667-0.667h12.105l-2.29-2.291c-0.26-0.26-0.26-0.682 0-0.943z"></path>
<path d="M16 1.81c-7.837 0-14.191 6.353-14.191 14.191s6.353 14.19 14.191 14.19c7.837 0 14.191-6.353 14.191-14.19s-6.353-14.191-14.191-14.191zM0.476 16c0-8.574 6.95-15.524 15.524-15.524s15.524 6.95 15.524 15.524c0 8.573-6.95 15.524-15.524 15.524s-15.524-6.95-15.524-15.524z"></path>
</symbol>
<symbol id="icon-made" viewBox="0 0 32 32">
<path fill="#4c4c4c" style="fill: var(--color1, #4c4c4c)" d="M32 16c0 8.837-7.163 16-16 16s-16-7.163-16-16c0-8.837 7.163-16 16-16s16 7.163 16 16z"></path>
<path fill="#eceded" style="fill: var(--color2, #eceded)" d="M16 28c-6.627 0-12-5.373-12-12s5.373-12 12-12c6.627 0 12 5.373 12 12s-5.373 12-12 12zM16 32c8.837 0 16-7.163 16-16s-7.163-16-16-16c-8.837 0-16 7.163-16 16s7.163 16 16 16z"></path>
</symbol>
<symbol id="icon-modal_close" viewBox="0 0 32 32">
<path d="M31.331 0.669c0.893 0.893 0.893 2.34 0 3.232l-27.429 27.429c-0.893 0.893-2.34 0.893-3.232 0s-0.893-2.34 0-3.232l27.429-27.429c0.893-0.893 2.34-0.893 3.232 0z"></path>
<path d="M0.669 0.669c0.893-0.893 2.34-0.893 3.232 0l27.429 27.429c0.893 0.893 0.893 2.34 0 3.232s-2.34 0.893-3.232 0l-27.429-27.429c-0.893-0.893-0.893-2.34 0-3.232z"></path>
</symbol>
  <symbol id="icon-modal_error" viewBox="0 0 32 32">
      <path d="M14.667 20h2.667v2.667h-2.667V20zm0-10.667h2.667v8h-2.667v-8zm1.32-6.666C8.627 2.667 2.667 8.64 2.667 16s5.96 13.333 13.32 13.333c7.373 0 13.347-5.973 13.347-13.333S23.361 2.667 15.987 2.667zm.013 24c-5.893 0-10.667-4.773-10.667-10.667S10.106 5.333 16 5.333c5.893 0 10.667 4.773 10.667 10.667S21.894 26.667 16 26.667z"/>
    </symbol>
    <symbol id="icon-modal_check" viewBox="0 0 32 32">
      <path d="M12.636 31.213c1.395 0 2.449-.536 3.163-1.607l15.448-23.28c.257-.379.446-.753.569-1.121.123-.379.184-.742.184-1.088 0-.96-.335-1.752-1.004-2.377-.658-.636-1.473-.954-2.444-.954-.669 0-1.238.134-1.707.402-.457.257-.893.703-1.305 1.339L12.569 22.895l-6.494-7.782c-.703-.815-1.584-1.222-2.644-1.222-.993 0-1.813.318-2.46.954S0 16.279 0 17.238c0 .435.067.848.201 1.238.145.379.407.775.787 1.188l8.619 10.159c.792.926 1.802 1.389 3.029 1.389z"/>
    </symbol>
    <symbol id="icon-modal_mail" viewBox="0 0 32 32">
      <path d="M5.333 6.667C4.603 6.667 4 7.27 4 8v16c0 .73.603 1.333 1.333 1.333h21.333c.73 0 1.333-.603 1.333-1.333V8c0-.73-.603-1.333-1.333-1.333H5.333zM1.333 8c0-2.203 1.797-4 4-4h21.333c2.203 0 4 1.797 4 4v16c0 2.203-1.797 4-4 4H5.333c-2.203 0-4-1.797-4-4V8z"/>
      <path d="M1.574 7.235a1.334 1.334 0 0 1 1.857-.328L16 15.705l12.569-8.798a1.333 1.333 0 1 1 1.529 2.185l-13.333 9.333a1.334 1.334 0 0 1-1.529 0L1.903 9.092a1.334 1.334 0 0 1-.328-1.857z"/>
    </symbol>
    <symbol id="icon-modal_phone" viewBox="0 0 32 32">
      <path d="M4.898 1.388c-1.449.244-2.699 1.269-3.161 2.592-.284.814-.302 1.396-.082 2.873.615 4.128 2.103 7.943 4.494 11.52 4.016 6.004 10.466 10.322 17.57 11.764 1.022.206 2.56.423 3.001.421 1.714-.004 3.271-1.207 3.794-2.933.117-.384.121-.482.14-2.873.02-2.626 0-2.946-.226-3.595a4.18 4.18 0 0 0-1.869-2.181l-.021-.011c-.428-.224-.921-.361-1.845-.514a18.058 18.058 0 0 1-2.826-.723l.128.038c-.857-.293-1.175-.347-1.851-.313-1.116.055-1.845.414-2.901 1.424l-.677.647-.149-.094a19.582 19.582 0 0 1-3.218-2.625l-.002-.002a19.414 19.414 0 0 1-2.583-3.147l-.045-.073-.094-.149.644-.67c.72-.748.999-1.17 1.246-1.874.153-.436.164-.512.164-1.237l.002-.773-.3-.907a16.106 16.106 0 0 1-.692-2.699l-.014-.101c-.164-.942-.252-1.257-.491-1.712a4.087 4.087 0 0 0-2.875-2.068l-.024-.004c-.402-.066-4.853-.068-5.236-.002zm5.155 2.738c.281.13.581.427.676.667.03.076.112.452.18.834.244 1.355.359 1.815.759 3.04.427 1.308.418 1.333-.921 2.693-1.141 1.159-1.266 1.34-1.268 1.838-.002.398.053.532.592 1.397.962 1.548 1.87 2.684 3.26 4.073 1.383 1.385 2.526 2.299 4.055 3.25.85.528 1.015.597 1.415.601.498.002.676-.121 1.838-1.266 1.358-1.337 1.381-1.344 2.697-.917 1.225.396 1.82.544 3.195.784.83.146 1.12.327 1.358.853.103.229.108.34.108 2.56s-.005 2.331-.108 2.56c-.129.303-.363.54-.655.671l-.008.003c-.332.156-.592.16-1.557.02-3.815-.556-7.243-1.895-10.549-4.123a22.845 22.845 0 0 1-3.59-2.934l-.001-.001c-3.538-3.493-6.078-8.185-7.02-12.971-.178-.898-.348-2.11-.347-2.45a1.31 1.31 0 0 1 .763-1.179l.008-.003.267-.124h2.293c2.29 0 2.293 0 2.56.124z"/>
    </symbol>
    <symbol id="icon-modal_user" viewBox="0 0 32 32">
      <path d="M5.953 20.619a6.668 6.668 0 0 1 4.714-1.953h10.667a6.67 6.67 0 0 1 6.667 6.667V28a1.333 1.333 0 0 1-2.666 0v-2.667a4.003 4.003 0 0 0-4-4H10.668a4.003 4.003 0 0 0-4 4V28a1.333 1.333 0 0 1-2.666 0v-2.667c0-1.768.702-3.464 1.953-4.714zM16 5.333a4 4 0 1 0 0 8 4 4 0 0 0 0-8zm-6.667 4a6.667 6.667 0 1 1 13.334 0 6.667 6.667 0 0 1-13.334 0z"/>
    </symbol>
      <symbol id="icon-to-top" viewBox="0 0 32 32">
      <path d="M0 16c0 8.837 7.163 16 16 16s16-7.163 16-16-7.163-16-16-16-16 7.163-16 16zM29 16c0 7.18-5.82 13-13 13s-13-5.82-13-13 5.82-13 13-13 13 5.82 13 13z"></path>
      <path d="M22.086 20.914l2.829-2.829-8.914-8.914-8.914 8.914 2.828 2.828 6.086-6.086z"></path>
    </symbol>
      </defs>
</svg>
