<svg xmlns="http://www.w3.org/2000/svg" aria-hidden="true" style="position:absolute;width:0;height:0;overflow:hidden">
  <defs>
<symbol id="icon_chocolate" viewBox="0 0 32 32">
<path fill="#fcf1e0" style="fill: var(--color1, #fcf1e0)" d="M3.944 20.075l10.777-17.424 0.64-0.674 8.236 5.491 0.056 3.314 2.010 3.28-8.88 14.076-12.839-8.063z"></path>
<path fill="none" stroke="#fd9222" style="stroke: var(--color2, #fd9222)" stroke-linejoin="round" stroke-linecap="round" stroke-miterlimit="4" stroke-width="2.7429" d="M21.634 23.879l-14.185-8.864M11.361 8.598l14.186 8.864M10.63 25.864l11.736-19.25M27.176 14.789c-3.040-1.899-4.234-3.384-2.278-6.592l-9.626-6.015-11.736 19.25 14.186 8.864 9.454-15.507z"></path>
</symbol>
<symbol id="icon_menu" viewBox="0 0 48 32">
<path stroke-linejoin="round" stroke-linecap="round" stroke-miterlimit="4" stroke-width="4" d="M3 16h42M3 2h42M3 30h42"></path>
</symbol>
<symbol id="icon_insta" viewBox="0 0 32 32">
<path d="M9.333 3.667c-3.13 0-5.667 2.537-5.667 5.667v13.333c0 3.13 2.537 5.667 5.667 5.667h13.333c3.13 0 5.667-2.537 5.667-5.667v-13.333c0-3.13-2.537-5.667-5.667-5.667h-13.333zM1.667 9.333c0-4.234 3.432-7.667 7.667-7.667h13.333c4.234 0 7.667 3.432 7.667 7.667v13.333c0 4.234-3.433 7.667-7.667 7.667h-13.333c-4.234 0-7.667-3.433-7.667-7.667v-13.333z"></path>
<path d="M16.693 11.656c-0.902-0.134-1.822 0.020-2.631 0.44s-1.465 1.084-1.875 1.898c-0.41 0.814-0.552 1.737-0.408 2.637s0.57 1.731 1.214 2.376c0.644 0.645 1.476 1.069 2.376 1.214s1.823 0.002 2.637-0.408c0.814-0.41 1.478-1.066 1.898-1.875s0.574-1.73 0.44-2.631c-0.136-0.92-0.565-1.771-1.222-2.428s-1.509-1.086-2.429-1.222zM13.141 10.321c1.182-0.614 2.528-0.839 3.846-0.643 1.344 0.199 2.589 0.826 3.549 1.787s1.587 2.205 1.787 3.549c0.195 1.318-0.030 2.663-0.643 3.846s-1.584 2.141-2.774 2.74-2.538 0.807-3.854 0.596c-1.315-0.212-2.53-0.833-3.472-1.775s-1.563-2.157-1.775-3.472c-0.212-1.315-0.003-2.664 0.596-3.854s1.558-2.161 2.74-2.774z"></path>
<path d="M22.333 8.667c0-0.552 0.448-1 1-1h0.013c0.552 0 1 0.448 1 1s-0.448 1-1 1h-0.013c-0.552 0-1-0.448-1-1z"></path>
</symbol>
<symbol id="icon_face" viewBox="0 0 30 32">
<path d="M13.75 4.353c1.405-1.405 3.311-2.194 5.298-2.194h3.81c0.631 0 1.143 0.512 1.143 1.143v5.079c0 0.631-0.512 1.143-1.143 1.143h-3.81c-0.034 0-0.066 0.013-0.090 0.037s-0.037 0.056-0.037 0.090v2.667h3.936c0.352 0 0.684 0.162 0.901 0.44s0.293 0.639 0.208 0.981l-1.27 5.079c-0.127 0.509-0.584 0.866-1.109 0.866h-2.667v9.016c0 0.631-0.512 1.143-1.143 1.143h-5.079c-0.631 0-1.143-0.512-1.143-1.143v-9.016h-2.667c-0.631 0-1.143-0.512-1.143-1.143v-5.079c0-0.631 0.512-1.143 1.143-1.143h2.667v-2.667c0-1.987 0.789-3.893 2.194-5.298zM19.047 4.445c-1.381 0-2.705 0.549-3.681 1.525s-1.525 2.301-1.525 3.681v3.81c0 0.631-0.512 1.143-1.143 1.143h-2.667v2.794h2.667c0.631 0 1.143 0.512 1.143 1.143v9.016h2.794v-9.016c0-0.631 0.512-1.143 1.143-1.143h2.917l0.698-2.794h-3.616c-0.631 0-1.143-0.512-1.143-1.143v-3.81c0-0.64 0.254-1.254 0.707-1.706s1.066-0.707 1.706-0.707h2.667v-2.794h-2.667z"></path>
</symbol>
<symbol id="icon_twit" viewBox="0 0 30 32">
<path d="M18.49 3.865c1.307-0.499 2.737-0.584 4.094-0.245 1.104 0.276 2.118 0.823 2.952 1.586 1.068-0.385 2.081-0.913 3.011-1.568 0.389-0.275 0.908-0.279 1.302-0.011s0.58 0.752 0.467 1.215c-0.434 1.784-1.31 3.426-2.541 4.779 0.022 0.22 0.033 0.44 0.034 0.661v0.004c0 7.702-3.706 13.34-9.018 16.168-5.285 2.813-12.046 2.785-18.076-0.566-0.463-0.257-0.688-0.798-0.545-1.308s0.617-0.854 1.146-0.833c2.244 0.089 4.464-0.377 6.468-1.344-4.675-2.811-6.234-6.982-6.541-10.57-0.17-1.994 0.043-3.804 0.294-5.11 0.126-0.655 0.263-1.19 0.371-1.565 0.054-0.188 0.1-0.336 0.134-0.439 0.017-0.052 0.031-0.093 0.041-0.122l0.012-0.035 0.005-0.014 0.001-0.001c0-0.001 0-0.001 1.076 0.386l-1.075-0.387c0.145-0.401 0.501-0.689 0.923-0.745s0.842 0.127 1.087 0.476c1.224 1.742 3.442 3.969 5.205 4.856 1.493 0.752 3.119 1.192 4.78 1.298v-0.099c-0.017-1.397 0.394-2.765 1.179-3.921 0.786-1.158 1.909-2.046 3.216-2.546zM3.729 7.44c-0.199 1.134-0.345 2.61-0.209 4.199 0.29 3.4 1.85 7.331 7.103 9.666 0.379 0.169 0.637 0.529 0.674 0.943s-0.153 0.814-0.496 1.047c-1.53 1.039-3.219 1.796-4.988 2.25 4.204 1.19 8.451 0.729 11.905-1.109 4.528-2.41 7.806-7.247 7.807-14.148-0.001-0.282-0.028-0.564-0.081-0.841-0.072-0.375 0.048-0.76 0.32-1.028 0.391-0.385 0.742-0.805 1.050-1.253-0.414 0.166-0.836 0.314-1.265 0.443-0.43 0.13-0.897-0.005-1.192-0.344-0.611-0.703-1.423-1.201-2.327-1.427s-1.854-0.169-2.724 0.163c-0.87 0.332-1.617 0.923-2.14 1.694s-0.797 1.683-0.784 2.614l0 0.015h-0v1.27c0 0.62-0.494 1.126-1.113 1.142-2.42 0.063-4.818-0.474-6.98-1.562-1.553-0.782-3.231-2.262-4.559-3.734z"></path>
</symbol>
<symbol id="icon-menu_close" viewBox="0 0 32 32">
<path fill="#fff" style="fill: var(--color1, #fff)" d="M8.525 8.525c0.446-0.446 1.17-0.446 1.616 0l5.858 5.859 5.859-5.859c0.446-0.446 1.17-0.446 1.616 0s0.446 1.17 0 1.616l-5.858 5.859 5.858 5.858c0.446 0.446 0.446 1.17 0 1.616s-1.17 0.446-1.616 0l-5.859-5.858-5.858 5.858c-0.446 0.446-1.17 0.446-1.616 0s-0.446-1.17 0-1.616l5.858-5.858-5.858-5.859c-0.446-0.446-0.446-1.17 0-1.616z"></path>
</symbol>
      </defs>
</svg>
