<svg xmlns="http://www.w3.org/2000/svg" aria-hidden="true" style="position:absolute;width:0;height:0;overflow:hidden">
  <defs>
<symbol id="icon_chocolate" viewBox="0 0 32 32">
<path fill="#fcf1e0" style="fill: var(--color1, #fcf1e0)" d="M3.944 20.075l10.777-17.424 0.64-0.674 8.236 5.491 0.056 3.314 2.010 3.28-8.88 14.076-12.839-8.063z"></path>
<path fill="none" stroke="#fd9222" style="stroke: var(--color2, #fd9222)" stroke-linejoin="round" stroke-linecap="round" stroke-miterlimit="4" stroke-width="2.7429" d="M21.634 23.879l-14.185-8.864M11.361 8.598l14.186 8.864M10.63 25.864l11.736-19.25M27.176 14.789c-3.040-1.899-4.234-3.384-2.278-6.592l-9.626-6.015-11.736 19.25 14.186 8.864 9.454-15.507z"></path>
</symbol>
<symbol id="icon_menu" viewBox="0 0 43 32">
<path d="M2.018 1.428c-0.599 0.174-1.298 0.864-1.456 1.438-0.107 0.382-0.107 0.997 0 1.38 0.164 0.596 0.868 1.273 1.499 1.444 0.181 0.048 6.56 0.066 19.424 0.053l19.156-0.018 0.3-0.16c0.94-0.503 1.403-1.417 1.221-2.418-0.128-0.7-0.533-1.232-1.221-1.6l-0.3-0.16-19.2-0.012c-11.399-0.005-19.291 0.016-19.422 0.053zM2.018 13.872c-0.599 0.174-1.298 0.864-1.456 1.438-0.107 0.382-0.107 0.997 0 1.38 0.164 0.596 0.868 1.273 1.499 1.444 0.181 0.048 6.56 0.066 19.424 0.053l19.156-0.018 0.3-0.16c0.94-0.503 1.403-1.417 1.221-2.418-0.128-0.7-0.533-1.232-1.221-1.6l-0.3-0.16-19.2-0.012c-11.399-0.005-19.291 0.016-19.422 0.053zM2.018 26.316c-0.599 0.174-1.298 0.864-1.456 1.438-0.107 0.382-0.107 0.997 0 1.38 0.164 0.596 0.868 1.273 1.499 1.444 0.181 0.048 6.56 0.066 19.424 0.053l19.156-0.018 0.3-0.16c0.94-0.503 1.403-1.417 1.221-2.418-0.128-0.7-0.533-1.232-1.221-1.6l-0.3-0.16-19.2-0.012c-11.399-0.005-19.291 0.016-19.422 0.053z"></path>
</symbol>
<symbol id="icon_insta" viewBox="0 0 32 32">
<path d="M9.333 3.667c-3.13 0-5.667 2.537-5.667 5.667v13.333c0 3.13 2.537 5.667 5.667 5.667h13.333c3.13 0 5.667-2.537 5.667-5.667v-13.333c0-3.13-2.537-5.667-5.667-5.667h-13.333zM1.667 9.333c0-4.234 3.432-7.667 7.667-7.667h13.333c4.234 0 7.667 3.432 7.667 7.667v13.333c0 4.234-3.433 7.667-7.667 7.667h-13.333c-4.234 0-7.667-3.433-7.667-7.667v-13.333z"></path>
<path d="M16.693 11.656c-0.902-0.134-1.822 0.020-2.631 0.44s-1.465 1.084-1.875 1.898c-0.41 0.814-0.552 1.737-0.408 2.637s0.57 1.731 1.214 2.376c0.644 0.645 1.476 1.069 2.376 1.214s1.823 0.002 2.637-0.408c0.814-0.41 1.478-1.066 1.898-1.875s0.574-1.73 0.44-2.631c-0.136-0.92-0.565-1.771-1.222-2.428s-1.509-1.086-2.429-1.222zM13.141 10.321c1.182-0.614 2.528-0.839 3.846-0.643 1.344 0.199 2.589 0.826 3.549 1.787s1.587 2.205 1.787 3.549c0.195 1.318-0.030 2.663-0.643 3.846s-1.584 2.141-2.774 2.74-2.538 0.807-3.854 0.596c-1.315-0.212-2.53-0.833-3.472-1.775s-1.563-2.157-1.775-3.472c-0.212-1.315-0.003-2.664 0.596-3.854s1.558-2.161 2.74-2.774z"></path>
<path d="M22.333 8.667c0-0.552 0.448-1 1-1h0.013c0.552 0 1 0.448 1 1s-0.448 1-1 1h-0.013c-0.552 0-1-0.448-1-1z"></path>
</symbol>
<symbol id="icon_face" viewBox="0 0 30 32">
<path d="M13.75 4.353c1.405-1.405 3.311-2.194 5.298-2.194h3.81c0.631 0 1.143 0.512 1.143 1.143v5.079c0 0.631-0.512 1.143-1.143 1.143h-3.81c-0.034 0-0.066 0.013-0.090 0.037s-0.037 0.056-0.037 0.090v2.667h3.936c0.352 0 0.684 0.162 0.901 0.44s0.293 0.639 0.208 0.981l-1.27 5.079c-0.127 0.509-0.584 0.866-1.109 0.866h-2.667v9.016c0 0.631-0.512 1.143-1.143 1.143h-5.079c-0.631 0-1.143-0.512-1.143-1.143v-9.016h-2.667c-0.631 0-1.143-0.512-1.143-1.143v-5.079c0-0.631 0.512-1.143 1.143-1.143h2.667v-2.667c0-1.987 0.789-3.893 2.194-5.298zM19.047 4.445c-1.381 0-2.705 0.549-3.681 1.525s-1.525 2.301-1.525 3.681v3.81c0 0.631-0.512 1.143-1.143 1.143h-2.667v2.794h2.667c0.631 0 1.143 0.512 1.143 1.143v9.016h2.794v-9.016c0-0.631 0.512-1.143 1.143-1.143h2.917l0.698-2.794h-3.616c-0.631 0-1.143-0.512-1.143-1.143v-3.81c0-0.64 0.254-1.254 0.707-1.706s1.066-0.707 1.706-0.707h2.667v-2.794h-2.667z"></path>
</symbol>
<symbol id="icon_twit" viewBox="0 0 30 32">
<path d="M18.49 3.865c1.307-0.499 2.737-0.584 4.094-0.245 1.104 0.276 2.118 0.823 2.952 1.586 1.068-0.385 2.081-0.913 3.011-1.568 0.389-0.275 0.908-0.279 1.302-0.011s0.58 0.752 0.467 1.215c-0.434 1.784-1.31 3.426-2.541 4.779 0.022 0.22 0.033 0.44 0.034 0.661v0.004c0 7.702-3.706 13.34-9.018 16.168-5.285 2.813-12.046 2.785-18.076-0.566-0.463-0.257-0.688-0.798-0.545-1.308s0.617-0.854 1.146-0.833c2.244 0.089 4.464-0.377 6.468-1.344-4.675-2.811-6.234-6.982-6.541-10.57-0.17-1.994 0.043-3.804 0.294-5.11 0.126-0.655 0.263-1.19 0.371-1.565 0.054-0.188 0.1-0.336 0.134-0.439 0.017-0.052 0.031-0.093 0.041-0.122l0.012-0.035 0.005-0.014 0.001-0.001c0-0.001 0-0.001 1.076 0.386l-1.075-0.387c0.145-0.401 0.501-0.689 0.923-0.745s0.842 0.127 1.087 0.476c1.224 1.742 3.442 3.969 5.205 4.856 1.493 0.752 3.119 1.192 4.78 1.298v-0.099c-0.017-1.397 0.394-2.765 1.179-3.921 0.786-1.158 1.909-2.046 3.216-2.546zM3.729 7.44c-0.199 1.134-0.345 2.61-0.209 4.199 0.29 3.4 1.85 7.331 7.103 9.666 0.379 0.169 0.637 0.529 0.674 0.943s-0.153 0.814-0.496 1.047c-1.53 1.039-3.219 1.796-4.988 2.25 4.204 1.19 8.451 0.729 11.905-1.109 4.528-2.41 7.806-7.247 7.807-14.148-0.001-0.282-0.028-0.564-0.081-0.841-0.072-0.375 0.048-0.76 0.32-1.028 0.391-0.385 0.742-0.805 1.050-1.253-0.414 0.166-0.836 0.314-1.265 0.443-0.43 0.13-0.897-0.005-1.192-0.344-0.611-0.703-1.423-1.201-2.327-1.427s-1.854-0.169-2.724 0.163c-0.87 0.332-1.617 0.923-2.14 1.694s-0.797 1.683-0.784 2.614l0 0.015h-0v1.27c0 0.62-0.494 1.126-1.113 1.142-2.42 0.063-4.818-0.474-6.98-1.562-1.553-0.782-3.231-2.262-4.559-3.734z"></path>
</symbol>
<symbol id="icon-menu_close" viewBox="0 0 32 32">
<path fill="#fff" style="fill: var(--color1, #fff)" d="M8.525 8.525c0.446-0.446 1.17-0.446 1.616 0l5.858 5.859 5.859-5.859c0.446-0.446 1.17-0.446 1.616 0s0.446 1.17 0 1.616l-5.858 5.859 5.858 5.858c0.446 0.446 0.446 1.17 0 1.616s-1.17 0.446-1.616 0l-5.859-5.858-5.858 5.858c-0.446 0.446-1.17 0.446-1.616 0s-0.446-1.17 0-1.616l5.858-5.858-5.858-5.859c-0.446-0.446-0.446-1.17 0-1.616z"></path>
</symbol>
<symbol id="icon_scroll" viewBox="0 0 32 32">
<path d="M16.947 17.867c-0.124 0.125-0.271 0.224-0.434 0.292s-0.337 0.103-0.513 0.103-0.35-0.035-0.513-0.103c-0.162-0.068-0.31-0.167-0.434-0.292l-6.107-6.12c-0.124-0.125-0.271-0.224-0.434-0.292s-0.337-0.103-0.513-0.103c-0.176 0-0.35 0.035-0.513 0.103s-0.31 0.167-0.434 0.292c-0.248 0.25-0.388 0.588-0.388 0.94s0.139 0.69 0.388 0.94l6.12 6.12c0.75 0.749 1.767 1.17 2.827 1.17s2.077-0.421 2.827-1.17l6.12-6.12c0.246-0.248 0.385-0.584 0.387-0.933 0.001-0.175-0.033-0.349-0.099-0.512s-0.164-0.31-0.288-0.435c-0.124-0.125-0.271-0.224-0.434-0.292s-0.337-0.103-0.513-0.103-0.35 0.035-0.513 0.103c-0.162 0.068-0.31 0.167-0.434 0.292l-6.107 6.12z"></path>
</symbol>
 <symbol id="icon_price" viewBox="0 0 32 32">
      <path d="M16 2.667c-7.333 0-13.333 6-13.333 13.333s6 13.333 13.333 13.333 13.333-6 13.333-13.333S23.333 2.667 16 2.667zm0 24c-5.867 0-10.667-4.8-10.667-10.667S10.133 5.333 16 5.333 26.667 10.133 26.667 16 21.867 26.667 16 26.667z"/>
      <path d="M17.733 14.667h-3.467c-.667 0-1.2-.533-1.2-1.2s.533-1.2 1.2-1.2h4.933c.8 0 1.333-.533 1.333-1.333s-.533-1.333-1.333-1.333h-1.867v-1.2c0-.8-.533-1.333-1.333-1.333s-1.333.533-1.333 1.333v1.2h-.4c-2.133 0-3.867 1.733-3.867 3.867s1.733 3.867 3.867 3.867h3.333c.667 0 1.2.533 1.2 1.2s-.533 1.2-1.2 1.2h-4.933c-.8 0-1.333.533-1.333 1.333s.533 1.333 1.333 1.333h2v1.2c0 .8.533 1.333 1.333 1.333s1.333-.533 1.333-1.333v-1.2h.4c2.133 0 3.867-1.733 3.867-3.867s-1.733-3.867-3.867-3.867z"/>
    </symbol>
    <symbol id="icon_taste" viewBox="0 0 32 32">
      <path d="m13.822 2.413 7.527 7.536.08-.08a.856.856 0 0 1 1.184-.013l.873.873c.305.305.315.77.083 1.094l-.004.007-.143.192 6.16 6.16c.55.55.55 1.43 0 1.98l-9.43 9.43c-.55.55-1.43.55-1.98 0l-4.447-4.447a.853.853 0 0 1-.612.317.842.842 0 0 1-.644-.246l-2.6-2.6a.856.856 0 0 1-.013-1.184l.006-.007.077-.076-7.527-7.527c-.55-.55-.55-1.43 0-1.98l9.43-9.43c.55-.55 1.43-.55 1.98 0v.001zm6.582 8.48-1.756-1.755a.59.59 0 0 0-.85 0l-3.58 3.58a.621.621 0 0 0-.179.43.602.602 0 0 0 .179.43l1.749 1.749.61-.61-1.565-1.565 3.21-3.22 1.569 1.574.613-.613zm-5.076 5.072-1.754-1.754a.59.59 0 0 0-.85 0l-3.59 3.59c-.24.23-.24.61 0 .85l1.752 1.752.616-.616-1.57-1.564 3.22-3.21 1.564 1.563.612-.611zM8.822 8.193l3.58 3.58c.24.24.62.24.85-.01l3.58-3.58a.57.57 0 0 0 .18-.42h.01c0-.15-.06-.31-.18-.43l-3.58-3.58a.602.602 0 0 0-.86 0l-3.58 3.59c-.24.23-.24.61 0 .85zm-5.07 5.07 3.58 3.58c.24.24.62.24.85 0l3.58-3.58a.578.578 0 0 0 .18-.43h.01c0-.16-.06-.31-.18-.43l-3.58-3.58a.59.59 0 0 0-.85 0l-3.59 3.59c-.24.23-.24.61 0 .85zm6.933 8.754 2.362 2.363 9.636-13.04-.655-.655-11.343 11.332z"/>
      <path d="m13.822 2.413 7.527 7.536.08-.08a.856.856 0 0 1 1.184-.013l.873.873c.305.305.315.77.083 1.094l-.004.007-.143.192 6.16 6.16c.55.55.55 1.43 0 1.98l-9.43 9.43c-.55.55-1.43.55-1.98 0l-4.447-4.447a.853.853 0 0 1-.612.317.842.842 0 0 1-.644-.246l-2.6-2.6a.856.856 0 0 1-.013-1.184l.006-.007.077-.076-7.527-7.527c-.55-.55-.55-1.43 0-1.98l9.43-9.43c.55-.55 1.43-.55 1.98 0v.001zm6.582 8.48-1.756-1.755a.59.59 0 0 0-.85 0l-3.58 3.58a.621.621 0 0 0-.179.43.602.602 0 0 0 .179.43l1.749 1.749.61-.61-1.565-1.565 3.21-3.22 1.569 1.574.613-.613zm-5.076 5.072-1.754-1.754a.59.59 0 0 0-.85 0l-3.59 3.59c-.24.23-.24.61 0 .85l1.752 1.752.616-.616-1.57-1.564 3.22-3.21 1.564 1.563.612-.611zM8.822 8.193l3.58 3.58c.24.24.62.24.85-.01l3.58-3.58a.57.57 0 0 0 .18-.42h.01c0-.15-.06-.31-.18-.43l-3.58-3.58a.602.602 0 0 0-.86 0l-3.58 3.59c-.24.23-.24.61 0 .85zm-5.07 5.07 3.58 3.58c.24.24.62.24.85 0l3.58-3.58a.578.578 0 0 0 .18-.43h.01c0-.16-.06-.31-.18-.43l-3.58-3.58a.59.59 0 0 0-.85 0l-3.59 3.59c-.24.23-.24.61 0 .85zm6.933 8.754 2.362 2.363 9.636-13.04-.655-.655-11.343 11.332z"/>
    </symbol>
    <symbol id="icon_tool" viewBox="0 0 32 32">
      <path d="M15.452 14.106a5.154 5.154 0 0 1-1.177-3.282c0-4.324 5.181-8.642 10.362-8.642a5.183 5.183 0 0 1 5.181 5.182c0 5.182-4.318 10.364-8.646 10.364a5.15 5.15 0 0 1-3.281-1.177L5.133 29.312a1.73 1.73 0 0 1-2.445-2.445l12.764-12.761z"/>
    </symbol>
      </defs>
</svg>
